Coordinates
version=1
nRows=17
nColumns=40
inDegrees=yes

Units are S.I. units (second, meters, Newtons, ...)
Angles are in degrees.

endheader
time	pelvis_tilt	pelvis_list	pelvis_rotation	pelvis_tx	pelvis_ty	pelvis_tz	hip_flexion_r	hip_adduction_r	hip_rotation_r	knee_angle_r	knee_angle_r_beta	ankle_angle_r	subtalar_angle_r	mtp_angle_r	hip_flexion_l	hip_adduction_l	hip_rotation_l	knee_angle_l	knee_angle_l_beta	ankle_angle_l	subtalar_angle_l	mtp_angle_l	lumbar_extension	lumbar_bending	lumbar_rotation	arm_flex_r	arm_add_r	arm_rot_r	elbow_flex_r	pro_sup_r	wrist_flex_r	wrist_dev_r	arm_flex_l	arm_add_l	arm_rot_l	elbow_flex_l	pro_sup_l	wrist_flex_l	wrist_dev_l
      1.57800000	     -2.64498682	     -5.87582281	     -2.03321905	      0.99916917	      0.93831217	      0.42391107	     30.02364133	     -5.47886654	     -4.21325557	     47.26210240	     47.26210240	      3.18793080	     -7.90381196	     -2.57680845	     10.88246378	     -7.45371709	     -9.22938152	     19.12216725	     19.12216725	     12.87172199	     -7.92723174	     -3.84524931	    -10.03941026	      5.55886408	      1.69002383	      0.43864104	    -12.55022084	     -1.78538099	     31.16797872	     46.52788679	      0.00000000	      0.00000000	     20.02459263	    -19.80310568	      1.61138997	     52.36146905	     46.22330305	      0.00000000	      0.00000000
      1.59100000	     -2.76090113	     -5.81548471	     -2.37559630	      0.99814652	      0.93816520	      0.42419877	     30.05610749	     -5.35864504	     -4.34947081	     44.32170876	     44.32170876	      2.91037199	     -7.55409486	     -3.03549536	     10.43188302	     -7.33256933	     -9.31311583	     18.68555113	     18.68555113	     12.59666842	     -8.46298947	     -4.59730787	    -10.13960239	      5.49447457	      1.30535288	      0.33132875	    -12.16029259	     -4.22914033	     27.73938245	     46.81435289	      0.00000000	      0.00000000	     19.59432530	    -20.44947975	     -0.07525575	     56.57035946	     46.44444915	      0.00000000	      0.00000000
      1.60400000	     -2.95686140	     -5.81010984	     -2.70436091	      0.99712849	      0.93785573	      0.42464000	     30.06429958	     -5.15852779	     -4.65038513	     41.24834121	     41.24834121	      2.90784736	     -6.93302135	     -2.61821485	     10.15510760	     -7.33131351	     -9.50728918	     18.44555280	     18.44555280	     12.73201280	     -8.57959370	     -4.64061878	    -10.08597452	      5.56276763	      1.55722181	     -1.02373910	    -12.42893066	     -4.45742143	     26.86478094	     46.85344191	      0.00000000	      0.00000000	     20.59036827	    -20.57615210	     -0.50757932	     57.68735781	     46.50709862	      0.00000000	      0.00000000
      1.61700000	     -3.12908009	     -5.70068079	     -3.03547055	      0.99622299	      0.93740287	      0.42520887	     29.97190281	     -5.02768654	     -4.99958671	     38.11046589	     38.11046589	      2.83479717	     -6.21638183	     -2.62068594	      9.82566847	     -7.21289729	     -9.70971705	     18.14161621	     18.14161621	     12.64693320	     -8.84755332	     -5.10165548	    -10.11603555	      5.45170270	      1.38628122	     -1.70178214	    -12.28323777	     -6.50719517	     25.26468057	     47.05275360	      0.00000000	      0.00000000	     20.51342391	    -20.87681462	     -2.25543948	     61.09857893	     46.71995663	      0.00000000	      0.00000000
      1.63000000	     -3.37293328	     -5.62903896	     -3.34261097	      0.99538274	      0.93684352	      0.42589649	     29.82961519	     -4.80804474	     -5.46588245	     34.87598036	     34.87598036	      2.87824929	     -5.38007465	     -2.10623250	      9.60596425	     -7.16117995	     -9.89585001	     17.92188695	     17.92188695	     12.77901313	     -8.90054213	     -5.16252739	     -9.98921919	      5.46044928	      1.62658575	     -2.88526661	    -12.51612681	     -6.69527067	     24.58978267	     47.08383068	      0.00000000	      0.00000000	     21.34465784	    -20.99441338	     -2.61948663	     62.18442705	     46.77354598	      0.00000000	      0.00000000
      1.64300000	     -3.52641724	     -5.41814676	     -3.66694945	      0.99475318	      0.93627722	      0.42673431	     29.57274445	     -4.71753907	     -6.02112810	     31.77219027	     31.77219027	      2.96524873	     -4.12006743	     -1.46562137	      9.22375887	     -6.96526766	    -10.23695928	     17.59385360	     17.59385360	     12.76402670	     -8.96183393	     -5.63174365	    -10.02799626	      5.21168335	      1.53515319	     -3.66241944	    -12.45242437	     -8.44980709	     23.74376793	     47.23557818	      0.00000000	      0.00000000	     21.17487382	    -21.15133322	     -4.33431982	     65.66356710	     46.98043789	      0.00000000	      0.00000000
      1.65600000	     -3.75736892	     -5.24961890	     -3.92128475	      0.99423547	      0.93557862	      0.42771105	     29.26084327	     -4.50034149	     -6.59942212	     28.64669232	     28.64669232	      2.92420489	     -3.10768570	     -0.81405952	      8.97496061	     -6.82934071	    -10.46777820	     17.36230529	     17.36230529	     12.92967452	     -8.93823982	     -5.73616098	     -9.85078628	      5.05559940	      1.70209552	     -4.69892564	    -12.59750485	     -8.60593583	     23.25966869	     47.25728346	      0.00000000	      0.00000000	     21.90716737	    -21.23763025	     -4.67339910	     66.71368272	     47.03003375	      0.00000000	      0.00000000
      1.66900000	     -3.95973567	     -4.97498404	     -4.13683256	      0.99391974	      0.93481288	      0.42869930	     28.89715912	     -4.37214061	     -7.15234580	     25.75267603	     25.75267603	      2.93179217	     -1.92213472	     -0.14367604	      8.66885523	     -6.57849350	    -10.75743920	     17.08215981	     17.08215981	     13.06716100	     -8.79158020	     -5.88461309	     -9.73043172	      4.84609968	      1.89372959	     -5.71938517	    -12.67531002	     -8.77027096	     22.90272135	     47.27441851	      0.00000000	      0.00000000	     22.55198605	    -21.25205418	     -5.08534165	     68.02881869	     47.08794693	      0.00000000	      0.00000000
      1.68200000	     -3.97540715	     -4.70893076	     -4.33114939	      0.99405350	      0.93423630	      0.42981146	     28.33318883	     -4.33364705	     -8.18243204	     23.28349756	     23.28349756	      3.40888450	      0.05646696	      1.71865296	      8.03007132	     -6.34303610	    -11.22405166	     16.61123860	     16.61123860	     13.09215087	     -8.37036439	     -6.64306402	     -9.83822538	      4.51097017	      1.64125095	     -6.61815073	    -12.71039670	     -9.95427292	     23.41208466	     47.32003273	      0.00000000	      0.00000000	     21.92227388	    -21.25056682	     -7.05955970	     71.85032386	     47.30454942	      0.00000000	      0.00000000
      1.69500000	     -4.13880655	     -4.44844332	     -4.45673000	      0.99435073	      0.93346341	      0.43110839	     27.81336889	     -4.13254235	     -8.82617690	     20.90042794	     20.90042794	      3.27706977	      1.08138591	      2.47372901	      7.58206852	     -6.10785957	    -11.49813482	     16.19585838	     16.19585838	     13.23317356	     -8.11638719	     -6.76796578	     -9.61020729	      4.26370252	      1.79104228	     -7.47976395	    -12.74862582	    -10.06441365	     23.12352953	     47.32853191	      0.00000000	      0.00000000	     22.40312973	    -21.12976271	     -7.38555634	     72.84386770	     47.34888889	      0.00000000	      0.00000000
      1.70800000	     -4.16641337	     -4.15387797	     -4.54713264	      0.99497190	      0.93279268	      0.43247681	     27.23226871	     -4.07183840	     -9.75842626	     19.14029195	     19.14029195	      3.64235329	      2.72535166	      4.15300995	      6.91421599	     -5.84917156	    -11.97658024	     15.66400422	     15.66400422	     13.23928252	     -7.57292478	     -7.43375748	     -9.58342907	      3.95927914	      1.61045055	     -8.33241687	    -12.73439753	    -10.66287928	     23.64527009	     47.31771009	      0.00000000	      0.00000000	     22.16575230	    -21.01737631	     -8.77398833	     75.24205633	     47.49936369	      0.00000000	      0.00000000
      1.72100000	     -4.21863086	     -3.82832698	     -4.56310694	      0.99584253	      0.93201751	      0.43387987	     26.64163610	     -4.00725090	    -10.49193623	     17.67100115	     17.67100115	      3.74987541	      3.76583663	      5.18787690	      6.24231301	     -5.52896630	    -12.26233547	     15.08188892	     15.08188892	     13.36210981	     -7.05555180	     -7.88867949	     -9.43242537	      3.64873907	      1.55160394	     -9.07200323	    -12.74231212	    -10.91956466	     23.88904395	     47.28660284	      0.00000000	      0.00000000	     22.17212864	    -20.77751873	     -9.57796218	     76.72641682	     47.59679685	      0.00000000	      0.00000000
      1.73400000	     -4.22161530	     -3.56486018	     -4.53616327	      0.99698991	      0.93133266	      0.43550670	     25.91854672	     -3.85767243	    -11.10518228	     16.43654450	     16.43654450	      3.63293193	      4.47802568	      5.52621308	      5.49618376	     -5.28037914	    -12.49221392	     14.49483092	     14.49483092	     13.53010197	     -6.51937985	     -8.06573940	     -9.27647409	      3.40081410	      1.65607836	     -9.71938348	    -12.71637444	    -10.96379037	     23.90156044	     47.27221662	      0.00000000	      0.00000000	     22.35501024	    -20.52755276	     -9.90397661	     77.63026894	     47.64054915	      0.00000000	      0.00000000
      1.74700000	     -4.39946678	     -3.21832102	     -4.39912675	      0.99815737	      0.93015284	      0.43705958	     25.59542539	     -3.85185718	    -11.41370303	     15.90407453	     15.90407453	      3.52870498	      4.57754988	      5.65799044	      5.15210623	     -4.97295315	    -12.48684779	     14.27666388	     14.27666388	     13.81621707	     -6.27959593	     -8.22452234	     -8.83373544	      3.13097641	      1.47000479	    -10.21547220	    -12.63483162	    -10.97942105	     23.81951757	     47.26974580	      0.00000000	      0.00000000	     22.50475549	    -20.48875227	    -10.02504796	     77.94574785	     47.65603386	      0.00000000	      0.00000000
      1.76000000	     -4.24518140	     -3.08390876	     -4.36364822	      0.99994712	      0.92981214	      0.43898303	     24.51530861	     -3.60853479	    -12.04197813	     14.96521908	     14.96521908	      3.21820571	      5.34266677	      5.53498932	      4.00256894	     -4.84651619	    -12.90727543	     13.34265850	     13.34265850	     13.95758570	     -5.36922902	     -8.36896654	     -8.84447303	      3.00177587	      1.67229989	    -10.70194861	    -12.57137072	    -11.02767918	     24.20680048	     47.24109411	      0.00000000	      0.00000000	     22.34364056	    -19.95131750	    -10.55751888	     79.10302760	     47.71459744	      0.00000000	      0.00000000
      1.77300000	     -4.38217961	     -2.90329600	     -4.27367254	      1.00139669	      0.92868275	      0.44096361	     24.19461130	     -3.47490609	    -12.19514290	     15.01220852	     15.01220852	      3.18359942	      5.26996532	      5.53505260	      3.69075371	     -4.76662963	    -12.90214022	     13.34407519	     13.34407519	     14.20301879	     -5.38390373	     -8.46162860	     -8.42304695	      2.92832016	      1.65225588	    -10.74224648	    -12.54389126	    -11.02937606	     24.22161855	     47.23968888	      0.00000000	      0.00000000	     22.35115776	    -19.92367909	    -10.57674695	     79.16106328	     47.71707079	      0.00000000	      0.00000000
      1.78600000	     -4.16119113	     -2.78135594	     -4.03026495	      1.00358069	      0.92824455	      0.44300653	     23.04169050	     -3.30164917	    -12.52419929	     14.38338168	     14.38338168	      2.01710636	      5.21837111	      2.09774143	      2.58148294	     -4.73087878	    -13.28389363	     12.66327171	     12.66327171	     14.73907521	     -3.85303027	     -8.39725860	     -8.50608678	      2.79606944	      1.11259330	    -11.22828277	    -12.34567292	    -10.79221841	     26.07875253	     47.08377415	      0.00000000	      0.00000000	     21.29234553	    -19.28323990	    -12.58188153	     81.14980774	     47.89195618	      0.00000000	      0.00000000
